<svg width="120" height="120" viewBox="0 0 120 120" fill="none" xmlns="http://www.w3.org/2000/svg">
<path d="M57.0273 3.05161C58.301 1.4797 60.699 1.4797 61.9727 3.05161L64.0826 5.65546C65.156 6.98021 67.0828 7.22362 68.452 6.20744L71.1432 4.21011C72.7678 3.00435 75.0904 3.60069 75.9331 5.43998L77.3292 8.48673C78.0395 10.0368 79.8452 10.7517 81.4241 10.108L84.5274 8.84269C86.4009 8.07883 88.5022 9.23404 88.8611 11.2251L89.4556 14.5234C89.758 16.2014 91.3292 17.3429 93.0186 17.112L96.3391 16.6582C98.3437 16.3843 100.092 18.0258 99.9441 20.0436L99.6997 23.386C99.5754 25.0866 100.813 26.583 102.507 26.7795L105.836 27.1657C107.846 27.3989 109.131 29.4235 108.486 31.3412L107.418 34.5179C106.875 36.1341 107.702 37.8913 109.293 38.5029L112.422 39.7049C114.31 40.4305 115.051 42.7111 113.95 44.4082L112.125 47.2195C111.197 48.6497 111.561 50.5574 112.951 51.5456L115.682 53.4878C117.331 54.6603 117.481 57.0535 115.992 58.4234L113.526 60.6927C112.271 61.8472 112.149 63.7854 113.25 65.0881L115.412 67.6486C116.717 69.1943 116.268 71.5497 114.485 72.5063L111.532 74.091C110.03 74.8972 109.43 76.7442 110.171 78.2795L111.629 81.2973C112.509 83.1191 111.488 85.2888 109.523 85.772L106.269 86.5724C104.613 86.9797 103.573 88.6194 103.909 90.291L104.57 93.5764C104.97 95.5598 103.441 97.4074 101.418 97.3869L98.0669 97.3529C96.3619 97.3355 94.9462 98.665 94.8565 100.368L94.68 103.714C94.5735 105.735 92.6335 107.144 90.6791 106.621L87.4417 105.755C85.7946 105.314 84.0927 106.25 83.5823 107.877L82.5791 111.074C81.9735 113.005 79.7439 113.887 77.981 112.895L75.0607 111.25C73.575 110.414 71.6939 110.897 70.795 112.346L69.028 115.193C67.9614 116.913 65.5824 117.213 64.1217 115.813L61.7021 113.494C60.471 112.315 58.5289 112.315 57.2979 113.494L54.8783 115.813C53.4176 117.213 51.0386 116.913 49.9719 115.193L48.205 112.346C47.3061 110.897 45.425 110.414 43.9393 111.25L41.019 112.895C39.256 113.887 37.0265 113.005 36.4209 111.074L35.4177 107.877C34.9073 106.25 33.2054 105.314 31.5583 105.755L28.3209 106.621C26.3665 107.144 24.4265 105.735 24.32 103.714L24.1435 100.368C24.0538 98.665 22.638 97.3355 20.9331 97.3529L17.5819 97.3869C15.5588 97.4074 14.0303 95.5598 14.4296 93.5764L15.091 90.291C15.4275 88.6194 14.3868 86.9797 12.7311 86.5724L9.47672 85.772C7.51209 85.2888 6.49111 83.1191 7.37109 81.2973L8.82876 78.2795C9.57038 76.7442 8.97024 74.8972 7.46781 74.091L4.51473 72.5063C2.73199 71.5497 2.28267 69.1943 3.58807 67.6486L5.75043 65.0881C6.85057 63.7854 6.72863 61.8472 5.4739 60.6927L3.00767 58.4234C1.51884 57.0535 1.66941 54.6603 3.31819 53.4878L6.04938 51.5456C7.43892 50.5574 7.80283 48.6497 6.87463 47.2195L5.05023 44.4082C3.94885 42.7111 4.68985 40.4305 6.57843 39.7049L9.70683 38.5029C11.2985 37.8913 12.1254 36.1341 11.582 34.5179L10.5141 31.3412C9.86935 29.4235 11.1542 27.3989 13.1639 27.1657L16.493 26.7795C18.1867 26.583 19.4246 25.0866 19.3003 23.386L19.0559 20.0436C18.9083 18.0258 20.6563 16.3843 22.6609 16.6582L25.9814 17.112C27.6708 17.3429 29.2419 16.2014 29.5444 14.5234L30.1389 11.2251C30.4978 9.23404 32.5991 8.07883 34.4726 8.84269L37.5759 10.108C39.1548 10.7517 40.9605 10.0368 41.6708 8.48673L43.0668 5.43998C43.9096 3.60069 46.2322 3.00435 47.8568 4.21012L50.548 6.20744C51.9172 7.22362 53.844 6.98021 54.9174 5.65546L57.0273 3.05161Z" fill="white"/>
<mask id="path-2-inside-1_12_444" fill="white">
<path d="M57.0273 8.40159C58.301 6.82968 60.6989 6.82968 61.9726 8.40159L63.4978 10.2839C64.5713 11.6086 66.4981 11.852 67.8673 10.8358L69.8126 9.39201C71.4373 8.18625 73.7598 8.78258 74.6026 10.6219L75.6118 12.8243C76.3221 14.3744 78.1278 15.0893 79.7067 14.4456L81.95 13.5309C83.8235 12.7671 85.9248 13.9223 86.2837 15.9134L86.7134 18.2976C87.0159 19.9756 88.5871 21.1171 90.2765 20.8863L92.6768 20.5582C94.6813 20.2843 96.4293 21.9258 96.2818 23.9436L96.1051 26.3597C95.9808 28.0603 97.2187 29.5567 98.9124 29.7532L101.319 30.0324C103.329 30.2656 104.614 32.2902 103.969 34.2079L103.197 36.5042C102.653 38.1204 103.48 39.8777 105.072 40.4892L107.333 41.3581C109.222 42.0838 109.963 44.3643 108.862 46.0614L107.543 48.0937C106.615 49.5239 106.979 51.4316 108.368 52.4198L110.342 53.8238C111.991 54.9963 112.142 57.3895 110.653 58.7594L108.87 60.3998C107.615 61.5543 107.493 63.4926 108.594 64.7952L110.157 66.6461C111.462 68.1918 111.013 70.5473 109.23 71.5039L107.095 72.6494C105.593 73.4556 104.993 75.3026 105.734 76.838L106.788 79.0194C107.668 80.8412 106.647 83.0109 104.682 83.4941L102.33 84.0728C100.674 84.48 99.6336 86.1198 99.9701 87.7913L100.448 90.1663C100.847 92.1497 99.319 93.9973 97.2959 93.9768L94.8734 93.9521C93.1684 93.9348 91.7527 95.2643 91.6629 96.967L91.5354 99.3863C91.4288 101.407 89.4889 102.816 87.5345 102.293L85.1942 101.667C83.5471 101.226 81.8452 102.162 81.3348 103.788L80.6096 106.1C80.004 108.03 77.7745 108.913 76.0115 107.921L73.9005 106.732C72.4148 105.895 70.5337 106.378 69.6348 107.827L68.3575 109.886C67.2908 111.605 64.9118 111.905 63.4511 110.506L61.702 108.829C60.471 107.65 58.5289 107.65 57.2979 108.829L55.5488 110.506C54.0881 111.905 51.7091 111.605 50.6424 109.886L49.3652 107.827C48.4662 106.378 46.5851 105.895 45.0994 106.732L42.9884 107.921C41.2255 108.913 38.9959 108.03 38.3903 106.1L37.6651 103.788C37.1547 102.162 35.4529 101.226 33.8057 101.667L31.4655 102.293C29.511 102.816 27.5711 101.407 27.4646 99.3863L27.337 96.967C27.2472 95.2643 25.8315 93.9348 24.1265 93.9521L21.704 93.9767C19.681 93.9973 18.1525 92.1497 18.5517 90.1663L19.0298 87.7913C19.3663 86.1198 18.3257 84.48 16.67 84.0728L14.3175 83.4941C12.3528 83.0109 11.3319 80.8412 12.2118 79.0194L13.2656 76.838C14.0072 75.3026 13.407 73.4556 11.9046 72.6494L9.76989 71.5039C7.98714 70.5473 7.53782 68.1918 8.84321 66.6461L10.4063 64.7952C11.5065 63.4926 11.3845 61.5543 10.1298 60.3998L8.34703 58.7594C6.8582 57.3895 7.00876 54.9963 8.65755 53.8238L10.6319 52.4198C12.0214 51.4316 12.3853 49.5239 11.4571 48.0937L10.1383 46.0615C9.03692 44.3643 9.77792 42.0838 11.6665 41.3581L13.9279 40.4892C15.5196 39.8777 16.3465 38.1204 15.8031 36.5042L15.0311 34.2079C14.3864 32.2902 15.6713 30.2656 17.681 30.0324L20.0875 29.7532C21.7812 29.5567 23.0191 28.0603 22.8948 26.3597L22.7181 23.9436C22.5706 21.9258 24.3186 20.2843 26.3231 20.5582L28.7235 20.8863C30.4128 21.1171 31.984 19.9756 32.2865 18.2976L32.7162 15.9134C33.0751 13.9223 35.1764 12.7671 37.0499 13.5309L39.2932 14.4456C40.8721 15.0893 42.6778 14.3744 43.3881 12.8243L44.3973 10.6219C45.2401 8.78259 47.5627 8.18625 49.1873 9.39201L51.1327 10.8358C52.5018 11.852 54.4286 11.6086 55.5021 10.2839L57.0273 8.40159Z"/>
</mask>
<path d="M57.0273 8.40159C58.301 6.82968 60.6989 6.82968 61.9726 8.40159L63.4978 10.2839C64.5713 11.6086 66.4981 11.852 67.8673 10.8358L69.8126 9.39201C71.4373 8.18625 73.7598 8.78258 74.6026 10.6219L75.6118 12.8243C76.3221 14.3744 78.1278 15.0893 79.7067 14.4456L81.95 13.5309C83.8235 12.7671 85.9248 13.9223 86.2837 15.9134L86.7134 18.2976C87.0159 19.9756 88.5871 21.1171 90.2765 20.8863L92.6768 20.5582C94.6813 20.2843 96.4293 21.9258 96.2818 23.9436L96.1051 26.3597C95.9808 28.0603 97.2187 29.5567 98.9124 29.7532L101.319 30.0324C103.329 30.2656 104.614 32.2902 103.969 34.2079L103.197 36.5042C102.653 38.1204 103.48 39.8777 105.072 40.4892L107.333 41.3581C109.222 42.0838 109.963 44.3643 108.862 46.0614L107.543 48.0937C106.615 49.5239 106.979 51.4316 108.368 52.4198L110.342 53.8238C111.991 54.9963 112.142 57.3895 110.653 58.7594L108.87 60.3998C107.615 61.5543 107.493 63.4926 108.594 64.7952L110.157 66.6461C111.462 68.1918 111.013 70.5473 109.23 71.5039L107.095 72.6494C105.593 73.4556 104.993 75.3026 105.734 76.838L106.788 79.0194C107.668 80.8412 106.647 83.0109 104.682 83.4941L102.33 84.0728C100.674 84.48 99.6336 86.1198 99.9701 87.7913L100.448 90.1663C100.847 92.1497 99.319 93.9973 97.2959 93.9768L94.8734 93.9521C93.1684 93.9348 91.7527 95.2643 91.6629 96.967L91.5354 99.3863C91.4288 101.407 89.4889 102.816 87.5345 102.293L85.1942 101.667C83.5471 101.226 81.8452 102.162 81.3348 103.788L80.6096 106.1C80.004 108.03 77.7745 108.913 76.0115 107.921L73.9005 106.732C72.4148 105.895 70.5337 106.378 69.6348 107.827L68.3575 109.886C67.2908 111.605 64.9118 111.905 63.4511 110.506L61.702 108.829C60.471 107.65 58.5289 107.65 57.2979 108.829L55.5488 110.506C54.0881 111.905 51.7091 111.605 50.6424 109.886L49.3652 107.827C48.4662 106.378 46.5851 105.895 45.0994 106.732L42.9884 107.921C41.2255 108.913 38.9959 108.03 38.3903 106.1L37.6651 103.788C37.1547 102.162 35.4529 101.226 33.8057 101.667L31.4655 102.293C29.511 102.816 27.5711 101.407 27.4646 99.3863L27.337 96.967C27.2472 95.2643 25.8315 93.9348 24.1265 93.9521L21.704 93.9767C19.681 93.9973 18.1525 92.1497 18.5517 90.1663L19.0298 87.7913C19.3663 86.1198 18.3257 84.48 16.67 84.0728L14.3175 83.4941C12.3528 83.0109 11.3319 80.8412 12.2118 79.0194L13.2656 76.838C14.0072 75.3026 13.407 73.4556 11.9046 72.6494L9.76989 71.5039C7.98714 70.5473 7.53782 68.1918 8.84321 66.6461L10.4063 64.7952C11.5065 63.4926 11.3845 61.5543 10.1298 60.3998L8.34703 58.7594C6.8582 57.3895 7.00876 54.9963 8.65755 53.8238L10.6319 52.4198C12.0214 51.4316 12.3853 49.5239 11.4571 48.0937L10.1383 46.0615C9.03692 44.3643 9.77792 42.0838 11.6665 41.3581L13.9279 40.4892C15.5196 39.8777 16.3465 38.1204 15.8031 36.5042L15.0311 34.2079C14.3864 32.2902 15.6713 30.2656 17.681 30.0324L20.0875 29.7532C21.7812 29.5567 23.0191 28.0603 22.8948 26.3597L22.7181 23.9436C22.5706 21.9258 24.3186 20.2843 26.3231 20.5582L28.7235 20.8863C30.4128 21.1171 31.984 19.9756 32.2865 18.2976L32.7162 15.9134C33.0751 13.9223 35.1764 12.7671 37.0499 13.5309L39.2932 14.4456C40.8721 15.0893 42.6778 14.3744 43.3881 12.8243L44.3973 10.6219C45.2401 8.78259 47.5627 8.18625 49.1873 9.39201L51.1327 10.8358C52.5018 11.852 54.4286 11.6086 55.5021 10.2839L57.0273 8.40159Z" fill="#25FD1E" stroke="black" stroke-width="1.10355" mask="url(#path-2-inside-1_12_444)"/>
<circle cx="59.5001" cy="59.5" r="43.7264" fill="#0123FF" stroke="black" stroke-width="0.551777"/>
<g clip-path="url(#clip0_12_444)">
<circle cx="59.4999" cy="59.4999" r="27.8136" fill="#FFEA01" stroke="black" stroke-width="0.551777"/>
<path d="M80.6272 60.8681C80.286 66.1369 77.9885 71.0881 74.1853 74.7504C70.3821 78.4127 65.3477 80.5219 60.0698 80.664C54.7918 80.8062 49.6512 78.9712 45.6564 75.5189C41.6616 72.0667 39.1008 67.2463 38.4764 62.0035" stroke="black" stroke-width="0.551777"/>
<ellipse cx="80.3899" cy="60.2058" rx="4.31987" ry="3.42025" fill="#FFEA01"/>
<path fill-rule="evenodd" clip-rule="evenodd" d="M76.1963 60.141C76.5335 62.0052 78.3168 63.4275 80.466 63.4275C82.6152 63.4275 84.3985 62.0052 84.7357 60.141L85.1125 60.141C84.7718 62.1926 82.8213 63.7654 80.466 63.7654C78.1108 63.7654 76.1602 62.1926 75.8195 60.141L76.1963 60.141Z" fill="black"/>
<path fill-rule="evenodd" clip-rule="evenodd" d="M51.3478 62.9864C53.8875 62.9864 55.9463 59.2119 55.9463 54.5558C55.9463 49.8996 53.8875 46.1251 51.3478 46.1251C49.4263 46.1251 47.7801 48.2857 47.0925 51.354L49.4037 55.357H46.7698C46.9899 59.6373 48.9555 62.9864 51.3478 62.9864Z" fill="#000B1F"/>
<path fill-rule="evenodd" clip-rule="evenodd" d="M67.7196 62.9864C70.2593 62.9864 72.3182 59.2119 72.3182 54.5558C72.3182 49.8996 70.2593 46.1251 67.7196 46.1251C65.7982 46.1251 64.1519 48.2857 63.4643 51.354L65.7755 55.357H63.1416C63.3617 59.6373 65.3273 62.9864 67.7196 62.9864Z" fill="#000B1F"/>
</g>
<g clip-path="url(#clip1_12_444)">
<path d="M28.5815 55.9613L29.5707 52.7507L27.3318 52.0609L26.6217 50.3875L30.7872 48.8019L31.9886 44.9023L25.4463 47.6009L23.1732 42.2134L21.9301 46.2483L23.9934 51.0055L23.9858 51.0301L20.7628 50.0371L19.7737 53.2478L28.5815 55.9613Z" fill="white"/>
<path d="M32.0822 45.2276L37.9673 37.3326L36.2954 36.0864L32.3566 41.3703L30.984 40.3472L34.5381 35.5792L33.1036 34.5099L29.5495 39.2779L28.3111 38.3547L32.1729 33.1739L30.501 31.9277L24.6929 39.7195L32.0822 45.2276Z" fill="white"/>
<path d="M38.806 36.3438L46.991 30.8692L45.8317 29.1359L40.3536 32.7999L39.4018 31.3769L44.345 28.0707L43.3503 26.5835L38.4071 29.8897L37.5484 28.6058L42.9195 25.0133L41.7602 23.28L33.6821 28.683L38.806 36.3438Z" fill="white"/>
<path d="M48.2305 30.6843L51.4709 29.7974L50.7267 27.0784L54.6251 26.0114C57.1578 25.3182 58.2651 23.854 57.7406 21.889C57.1901 19.8777 55.4813 19.1443 52.961 19.8342L45.7974 21.7949L48.2305 30.6843ZM50.2271 25.2534L49.5373 22.733L52.3804 21.9549C53.5102 21.6456 54.2533 21.9227 54.4742 22.7297C54.6985 23.5491 54.2001 24.1659 53.0703 24.4752L50.2271 25.2534Z" fill="white"/>
<path d="M65.4584 29.9942C68.782 30.638 71.1775 29.7777 71.5272 27.905C71.8454 26.2621 70.6926 25.1735 67.6956 24.2653L66.0492 23.7628C64.9086 23.4239 64.4447 23.1111 64.5108 22.7699C64.6164 22.2922 65.623 22.1725 66.9144 22.4095C68.307 22.6661 69.7174 23.3719 70.5758 24.22L71.8654 22.5031C70.8929 21.5674 69.1865 20.7649 67.2783 20.3953C64.0559 19.7711 61.644 20.4447 61.2671 22.3908C60.9562 23.9957 62.0278 25.0293 64.8251 25.8857L66.4565 26.3984C67.8045 26.8168 68.3394 27.1695 68.2635 27.5613C68.1729 28.0289 67.3054 28.1755 66.029 27.9283C64.2977 27.5929 62.4565 26.607 61.5691 25.5698L60.0524 27.3082C61.0844 28.4783 63.2848 29.5732 65.4584 29.9942Z" fill="#25FD1E"/>
<path d="M70.926 30.361L73.5128 32.1873L76.8461 27.4658L76.8671 27.4807L75.9734 33.9244L78.3183 35.58L84.0071 32.5215L84.0282 32.5363L80.6948 37.2577L83.2816 39.084L88.5971 31.5549L85.0008 29.016L78.8166 32.3077L78.7955 32.2928L79.7957 25.3412L76.2415 22.8319L70.926 30.361Z" fill="#25FD1E"/>
<path d="M82.8935 39.9863L84.8993 42.6493L92.261 37.1042L90.2551 34.4413L82.8935 39.9863Z" fill="#25FD1E"/>
<path d="M85.5082 43.4927L89.2451 51.6351L91.4796 50.6096L89.144 45.5206L95.2859 42.7018L93.8845 39.6484L85.5082 43.4927Z" fill="#25FD1E"/>
<path d="M89.5394 52.3833L90.4987 62.1836L92.5741 61.9804L91.932 55.4213L93.6358 55.2545L94.2152 61.1731L95.9959 60.9988L95.4165 55.0802L96.9538 54.9298L97.5834 61.3608L99.6587 61.1576L98.7119 51.4855L89.5394 52.3833Z" fill="#25FD1E"/>
<path d="M90.1052 64.1286L87.242 73.5502L89.2371 74.1566L91.1534 67.8508L92.7914 68.3486L91.0623 74.0386L92.7742 74.5588L94.5033 68.8689L95.9813 69.318L94.1024 75.5006L96.0976 76.1069L98.9233 66.8084L90.1052 64.1286Z" fill="white"/>
<path d="M85.0583 76.615L82.7821 79.6221L87.3727 88.828L89.478 86.0467L86.1665 79.8431L86.182 79.8225L93.0594 81.3153L95.157 78.5442L85.0583 76.615Z" fill="white"/>
<path d="M80.025 82.8772L71.7499 88.2145L72.8802 89.9669L78.4185 86.3947L79.3465 87.8334L74.3489 91.0567L75.3187 92.5603L80.3163 89.337L81.1535 90.635L75.7233 94.1375L76.8536 95.8898L85.0205 90.6223L80.025 82.8772Z" fill="white"/>
<path d="M61.9798 90.2621C61.1505 90.4461 60.2372 90.9652 59.842 91.5013L60.6877 92.698C60.7995 92.4886 61.076 92.3086 61.2896 92.2612C61.6414 92.1831 61.8885 92.2865 62.1021 92.4764L62.9577 93.3018C63.2439 93.5811 63.5733 93.7585 63.9 93.8047L63.9028 93.8172C62.3263 94.4967 61.5804 95.6511 61.8789 96.9957C62.2804 98.8053 63.8942 99.5415 66.3069 99.006L73.8718 97.3271L71.875 88.3297L68.5952 89.0576L69.259 92.0484L67.3363 92.4751C66.7457 92.6061 66.137 92.4775 65.6429 92.0334L64.8682 91.2164C64.1885 90.5894 63.337 89.9609 61.9798 90.2621ZM69.6689 93.8956L70.1625 96.1198L66.8576 96.8533C65.9152 97.0625 65.2702 96.7705 65.114 96.0668C64.9606 95.3756 65.4215 94.8382 66.364 94.6291L69.6689 93.8956Z" fill="white"/>
<path d="M56.2485 90.2137L52.9321 89.6769L52.4303 92.7773L47.1011 98.0694L50.6335 98.6412L53.7197 95.2028L53.7324 95.2048L55.7034 99.4618L59.1978 100.027L55.7467 93.3142L56.2485 90.2137Z" fill="white"/>
<path d="M48.8766 89.0856L43.2589 85.714C40.1907 83.8725 37.6321 84.2585 36.1085 86.797C34.585 89.3354 35.4478 91.7748 38.5161 93.6163L44.1338 96.988L48.8766 89.0856ZM44.9008 89.3566L42.4963 93.363L40.0792 91.9123C38.5561 90.9982 38.1325 89.7531 38.9009 88.4728C39.6692 87.1926 40.9607 86.9919 42.4838 87.906L44.9008 89.3566Z" fill="white"/>
<path d="M38.8908 83.3406L36.8099 80.5569L35.0973 80.9533L32.3458 77.2727L33.2029 75.732L31.1143 72.9381L26.4224 82.0544L28.7576 85.1783L38.8908 83.3406ZM33.1887 81.5604L29.2845 82.4219L29.2691 82.4013L31.2157 78.9212L33.1887 81.5604Z" fill="white"/>
<path d="M30.3324 69.3282L29.4576 66.0845L26.4252 66.9023L19.4095 64.2215L20.3413 67.6765L24.7448 69.0753L24.7481 69.0878L21.6786 72.6353L22.6003 76.053L27.3 70.146L30.3324 69.3282Z" fill="white"/>
<path d="M28.9927 60.4751C28.9725 59.497 28.353 58.8017 27.5165 58.819C26.6672 58.8365 26.0898 59.5566 26.11 60.5346C26.1302 61.5127 26.7365 62.1954 27.5859 62.1779C28.4224 62.1606 29.0129 61.4532 28.9927 60.4751Z" fill="white"/>
</g>
<defs>
<clipPath id="clip0_12_444">
<rect width="56.1791" height="56.1791" fill="white" transform="translate(31.4104 31.4104)"/>
</clipPath>
<clipPath id="clip1_12_444">
<rect width="80.2617" height="81.2671" fill="white" transform="translate(19.4097 18.7604)"/>
</clipPath>
</defs>
</svg>
