<svg width="259" height="223" viewBox="0 0 259 223" fill="none" xmlns="http://www.w3.org/2000/svg">
<ellipse cx="128.411" cy="116.427" rx="107.439" ry="70.5" transform="rotate(-31.085 128.411 116.427)" fill="white"/>
<path d="M209.97 67.2568C218.446 81.3163 217.192 99.5748 208.068 117.836C198.949 136.087 182.018 154.215 159.41 167.845C136.801 181.476 112.865 187.985 92.4689 187.529C72.0597 187.073 55.3276 179.658 46.8513 165.598C38.375 151.539 39.6292 133.28 48.7536 115.018C57.8723 96.7682 74.8031 78.64 97.4118 65.0096C120.02 51.3792 143.956 44.8699 164.352 45.326C184.762 45.7823 201.494 53.1972 209.97 67.2568Z" fill="white" stroke="#0C5CF5" stroke-width="1.74343"/>
<path d="M95.9183 115.088L95.545 115.313L95.77 115.686L99.0934 121.199L86.0424 129.067L85.6691 129.292L85.8942 129.665L89.5155 135.672L89.7405 136.045L90.1138 135.82L103.165 127.952L116.647 150.315L116.872 150.688L117.246 150.463L123.696 146.575L124.069 146.35L123.844 145.976L110.386 123.653L123.517 115.737L123.891 115.511L123.666 115.138L120.02 109.091L119.795 108.718L119.422 108.943L106.29 116.86L102.967 111.347L102.742 110.974L102.368 111.199L95.9183 115.088ZM121.239 106.552L121.594 106.263L121.288 105.922C119.604 104.049 117.716 102.3 115.738 100.77L115.468 100.561L115.2 100.774L111.823 103.47L111.38 103.823L111.835 104.161C113.198 105.17 114.536 106.309 117.25 109.268L117.528 109.571L117.846 109.312L121.239 106.552ZM106.238 155.412L106.665 155.518L106.766 155.089C108.286 148.674 107.031 141.443 103.008 133.028L102.822 132.639L102.432 132.82L96.1168 135.748L95.6962 135.943L95.9167 136.351C98.7406 141.573 99.6639 147.591 98.1684 152.95L98.0478 153.383L98.4835 153.491L106.238 155.412ZM115.123 125.171L114.801 125.427L115.038 125.763L115.062 125.796C116.599 127.972 122.465 136.274 132.412 139.708L132.824 139.85L132.966 139.438L135.51 132.079L135.65 131.671L135.245 131.526C128.819 129.224 124.735 125.684 121.124 120.957L120.854 120.603L120.506 120.881L115.123 125.171ZM115.796 110.108L116.162 109.812L115.84 109.47C113.841 107.35 112.758 106.387 110.378 104.453L110.107 104.233L109.833 104.449L106.553 107.031L106.138 107.358L106.538 107.703C108.356 109.275 110.042 110.985 111.724 112.868L112 113.178L112.323 112.917L115.796 110.108ZM139.698 97.1583C139.056 94.0394 138.425 92.1588 137.883 90.5408C137.829 90.3799 137.776 90.2216 137.724 90.065L137.567 89.5953L137.121 89.8098L129.919 93.2722L129.545 93.4521L129.707 93.8346C132.64 100.776 133.641 108.924 130.493 115.936L130.269 116.433L130.804 116.541L138.251 118.043L138.623 118.118L138.748 117.76L138.753 117.746C139.46 115.725 140.722 112.115 140.656 105.844L148.693 100.998C150.361 104.608 151.956 108.245 151.691 112.346C151.418 116.588 149.142 121.417 142.613 127.235L142.165 127.634L142.683 127.937L149.214 131.749L149.498 131.915L149.735 131.688C157.3 124.441 160.065 118.073 160.319 112.21C160.565 106.509 158.43 101.357 156.214 96.4641L165.113 91.0988L165.487 90.8737L165.262 90.5004L161.616 84.4535L161.391 84.0802L161.018 84.3052L139.698 97.1583Z" fill="#0123FF" stroke="black" stroke-width="0.871716"/>
<g clip-path="url(#clip0_12_419)">
<path d="M63.1922 145.695L65.3284 145.942L67.132 136.307C67.4369 134.678 67.3457 133.389 66.8583 132.44C66.3709 131.491 65.5169 130.946 64.2962 130.805C63.2993 130.69 62.4908 130.901 61.8503 131.436C61.2098 131.971 60.7261 132.89 60.3753 134.209L59.9277 134.157C60.0176 133.011 59.8649 132.161 59.4696 131.608C59.0743 131.055 58.4069 130.735 57.4914 130.629C56.3725 130.5 55.4233 130.797 54.6642 131.521C53.9051 132.245 53.388 133.342 53.1091 134.832L51.3315 144.327L53.4677 144.574L53.8507 142.528C53.8767 142.389 53.9489 142.336 54.0913 142.352L63.409 143.427C63.5514 143.443 63.6013 143.51 63.5752 143.649L63.1922 145.695ZM58.9973 136.018L58.2499 140.011L54.4048 139.568L55.1523 135.575C55.2899 134.84 55.5568 134.303 55.9566 133.943C56.3565 133.583 56.8616 133.438 57.4516 133.506C58.0823 133.579 58.5296 133.854 58.7974 134.311C59.0651 134.768 59.1478 135.325 59.0251 135.981L58.9973 136.018ZM64.9343 136.5L64.1571 140.652L60.1086 140.185L60.8858 136.033C61.0458 135.179 61.3478 134.565 61.7755 134.167C62.2032 133.77 62.7527 133.61 63.4074 133.666C64.0381 133.738 64.4854 134.013 64.7458 134.51C65.0061 135.007 65.0665 135.683 64.9066 136.538L64.9343 136.5Z" fill="#0123FF"/>
<path d="M72.9728 121.571C73.6822 121.25 74.3058 120.636 74.8255 119.718C75.4879 118.548 75.7431 117.571 75.5911 116.786C75.4391 116.001 74.8541 115.373 73.8463 114.884L71.3808 113.687L69.8216 116.44L71.7832 117.392C72.2152 117.602 72.4881 117.849 72.6022 118.134C72.7162 118.419 72.6714 118.741 72.4574 119.119C72.2841 119.425 72.0413 119.651 71.7108 119.789C71.3804 119.927 70.9342 119.985 70.3722 119.965L67.0103 119.824L67.7543 118.51C68.5695 117.071 68.8984 115.923 68.7332 115.04C68.5679 114.156 67.9313 113.457 66.8336 112.925C65.7538 112.4 64.7503 112.349 63.8052 112.762C62.8601 113.175 62.0093 114.07 61.2348 115.437L55.7319 125.154L57.6216 126.071L58.6712 124.218C58.7425 124.092 58.8271 124.064 58.953 124.125L67.1954 128.127C67.3214 128.188 67.3448 128.268 67.2735 128.394L66.2238 130.247L68.1135 131.165L71.7107 124.813L69.8211 123.895L68.8937 125.533C68.8224 125.659 68.7378 125.687 68.6119 125.625L65.2105 123.974L66.3009 122.049C66.3723 121.923 66.4952 121.868 66.6517 121.875L70.1881 122.032C71.3481 122.09 72.2868 121.972 72.9962 121.652L72.9728 121.571ZM66.3891 118.49L63.6989 123.24L60.2075 121.545L62.8571 116.867C63.2443 116.183 63.6838 115.731 64.1576 115.502C64.6313 115.274 65.1831 115.312 65.795 115.609C66.3889 115.897 66.7189 116.287 66.803 116.787C66.8872 117.286 66.7458 117.86 66.3789 118.508L66.3891 118.49Z" fill="#0123FF"/>
<path d="M75.135 114.589L76.7336 115.91L81.1287 111.026L79.53 109.705L78.0184 111.385L76.8924 109.126L81.3854 104.134L83.8831 104.869L82.3714 106.548L83.97 107.869L88.673 102.644L87.0744 101.323L86.1086 102.396C86.0106 102.505 85.8949 102.545 85.7616 102.516L73.2712 99.4631L71.1577 101.811L76.1457 113.2C76.1951 113.322 76.1708 113.438 76.0728 113.547L75.135 114.589ZM79.4249 103.599L76.0096 107.393L73.4513 102.242L73.7312 101.931L79.4249 103.599Z" fill="#0123FF"/>
<path d="M87.777 101.071L89.1649 102.598L94.9706 97.5865L93.5826 96.0592L91.9443 97.4735C91.833 97.5697 91.7456 97.5672 91.6531 97.4654L85.5992 90.8036C85.5066 90.7018 85.5147 90.6169 85.626 90.5208L87.2643 89.1065L85.8764 87.5792L80.0708 92.5911L81.4587 94.1184L83.097 92.7041C83.2084 92.608 83.2957 92.6104 83.3883 92.7122L89.4422 99.374C89.5347 99.4759 89.5267 99.5607 89.4153 99.6568L87.777 101.071Z" fill="#0123FF"/>
<path d="M94.5301 94.919L95.6946 96.6171L102.136 92.2732L100.971 90.5752L98.6673 92.1291C98.6149 92.1644 98.5514 92.1835 98.4943 92.1747C98.4372 92.1659 98.3976 92.1454 98.3643 92.0968L93.6177 85.1752L93.897 84.9868L105.592 89.9424L109.171 87.5291L102.816 78.2625C102.738 78.1493 102.775 78.0537 102.897 77.9713L104.678 76.7706L103.513 75.0725L97.3163 79.2516L98.4807 80.9496L100.541 79.5605C100.663 79.4781 100.748 79.4913 100.826 79.6045L105.706 86.7202L105.415 86.8924L93.8076 81.6177L88.0645 85.4907L89.2289 87.1888L91.0095 85.988C91.1317 85.9056 91.2173 85.9188 91.2949 86.032L96.3743 93.4388C96.452 93.5521 96.4329 93.6359 96.3107 93.7183L94.5301 94.919Z" fill="#0123FF"/>
<path d="M115.504 81.574L116.276 83.4858L122.964 80.6208C124.839 79.8176 126.258 78.9532 127.203 78.0359C128.148 77.1186 128.687 76.0972 128.815 74.9532C128.942 73.8093 128.708 72.4999 128.112 71.025C127.546 69.623 126.832 68.5835 125.961 67.8883C125.091 67.1932 123.98 66.8573 122.649 66.8725C121.317 66.8876 119.733 67.2885 117.877 68.0834L111.189 70.9485L111.962 72.8604L113.953 72.0075C114.088 71.9495 114.168 71.9793 114.219 72.1068L117.588 80.4462C117.639 80.5737 117.603 80.6532 117.468 80.7111L115.504 81.574ZM121.895 78.8149L120.348 79.4773L116.833 70.7737L118.379 70.1112C120.254 69.308 121.754 69.0926 122.872 69.4466C123.99 69.8007 124.83 70.7011 125.411 72.1396C125.83 73.1775 125.995 74.0896 125.904 74.8759C125.814 75.6623 125.444 76.3758 124.796 77.0166C124.148 77.6574 123.19 78.2601 121.914 78.8066L121.895 78.8149Z" fill="#0123FF"/>
<path d="M133.474 74.8814C134.901 75.7566 136.767 75.8871 139.078 75.2921C141.388 74.6971 143.007 73.6689 143.931 72.1883C144.855 70.7077 145.076 68.8378 144.589 66.5592C144.102 64.2806 143.148 62.7134 141.725 61.8575C140.302 61.0016 138.435 60.8712 136.125 61.4661C133.815 62.0611 132.196 63.0893 131.268 64.5506C130.34 66.0119 130.119 67.8819 130.606 70.1604C131.092 72.439 132.047 74.0063 133.474 74.8814ZM141.538 71.1952C141.022 72.1837 140.055 72.8606 138.657 73.2207C137.258 73.5808 136.118 73.4467 135.256 72.8132C134.393 72.1796 133.789 71.0518 133.447 69.4491C132.758 66.2243 133.814 64.2614 136.611 63.5412C139.408 62.8209 141.148 64.0635 141.837 67.2883C142.179 68.891 142.095 70.1963 141.579 71.1848L141.538 71.1952Z" fill="#0123FF"/>
<path d="M146.164 61.5283L149.762 73.0051L152.57 73.002L156.922 63.0763L160.021 72.9936L162.829 72.9904L167.858 61.5039C167.907 61.3839 168.014 61.3237 168.159 61.3236L169.583 61.322L169.718 59.2217L163.918 59.2282L163.783 61.3285L165.393 61.3267L162.208 69.7909L161.775 69.7914L159.613 61.3332L161.388 61.3312L161.523 59.2309L153.741 59.2397L153.607 61.34L155.237 61.3381L151.991 69.8024L151.557 69.8029L149.396 61.3447L151.171 61.3427L151.306 59.2424L144.597 59.2499L144.462 61.3502L145.887 61.3486C146.031 61.3485 146.131 61.4084 146.164 61.5283Z" fill="#0123FF"/>
<path d="M168.341 70.0979L167.611 72.1285L174.843 74.1903L175.572 72.1597L172.985 71.4222C172.927 71.4054 172.875 71.3693 172.85 71.3194C172.824 71.2696 172.819 71.2253 172.839 71.1673L175.814 62.8902L176.127 62.9796L178.723 75.2967L182.74 76.4422L186.723 65.3609C186.771 65.2256 186.871 65.1899 187.008 65.229L189.007 65.799L189.736 63.7684L182.779 61.7847L182.05 63.8153L184.362 64.4747C184.499 64.5138 184.537 64.5886 184.489 64.7239L181.431 73.2331L181.124 73.1244L178.84 60.6616L172.393 58.8232L171.663 60.8538L173.662 61.4238C173.799 61.4629 173.837 61.5377 173.788 61.673L170.605 70.5303C170.557 70.6657 170.477 70.7069 170.34 70.6678L168.341 70.0979Z" fill="#0123FF"/>
<path d="M73.8438 172.692L73.2953 174.819L80.4234 176.187C82.4218 176.571 84.0913 176.636 85.4116 176.379C86.7318 176.122 87.7903 175.539 88.5924 174.608C89.3944 173.678 90.0069 172.392 90.43 170.752C90.8322 169.192 90.8934 167.864 90.619 166.749C90.3445 165.633 89.6571 164.693 88.5774 163.933C87.4978 163.173 85.9794 162.606 84.0016 162.226L76.8735 160.858L76.3251 162.985L78.447 163.392C78.5913 163.42 78.6374 163.493 78.6008 163.634L76.2086 172.912C76.172 173.054 76.0946 173.103 75.9503 173.075L73.8438 172.692ZM80.6681 173.981L79.02 173.664L81.5167 163.981L83.1648 164.298C85.1631 164.681 86.5007 165.363 87.1829 166.323C87.865 167.283 87.9895 168.561 87.5769 170.162C87.2791 171.316 86.8535 172.212 86.2998 172.85C85.7462 173.488 85.0129 173.9 84.1001 174.086C83.1872 174.273 82.0484 174.245 80.6887 173.984L80.6681 173.981Z" fill="#0123FF"/>
<path d="M96.8221 177.25C97.9598 178.035 99.591 178.343 101.736 178.152C103.966 177.952 105.628 177.371 106.742 176.385C107.855 175.399 108.377 173.97 108.306 172.1L108.057 165.503C108.052 165.359 108.113 165.292 108.262 165.279L110.471 165.081L110.39 162.923L102.892 163.593L102.974 165.751L105.161 165.556C105.31 165.542 105.376 165.598 105.381 165.742L105.627 172.257C105.673 173.47 105.408 174.359 104.811 174.928C104.215 175.497 103.312 175.846 102.08 175.956C100.742 176.075 99.734 175.918 99.0563 175.463C98.3785 175.008 98.0274 174.173 97.9816 172.96L97.7361 166.445C97.7306 166.302 97.792 166.234 97.9407 166.221L100.128 166.026L100.047 163.868L92.2947 164.56L92.3761 166.718L94.5637 166.523C94.7124 166.509 94.7784 166.565 94.7838 166.709L95.0325 173.306C95.103 175.176 95.7071 176.504 96.8449 177.289L96.8221 177.25Z" fill="#0123FF"/>
<path d="M114.423 173.999L115.016 176.053L122.392 173.685L121.8 171.631L119.443 172.387C119.3 172.433 119.222 172.395 119.182 172.258L116.378 163.154L116.828 163.01L124.182 172.128L126.395 171.418L127.893 159.459L128.324 159.321L130.821 168.522C130.838 168.581 130.828 168.627 130.799 168.679C130.769 168.731 130.713 168.771 130.652 168.79L128.111 169.606L128.703 171.66L136.654 169.109L136.061 167.054L133.93 167.738C133.787 167.784 133.688 167.752 133.648 167.615L131.064 158.655C131.025 158.518 131.09 158.433 131.233 158.387L133.364 157.703L132.772 155.649L125.805 157.885L124.827 167.924L124.397 168.062L118.49 160.232L111.134 162.593L111.726 164.647L113.837 163.97C113.98 163.924 114.059 163.963 114.098 164.1L116.682 173.06C116.722 173.197 116.677 173.275 116.534 173.321L114.423 173.999Z" fill="#0123FF"/>
<path d="M138.93 165.647L139.903 167.542L149.18 162.684C150.748 161.863 151.805 160.943 152.35 159.925C152.895 158.907 152.89 157.856 152.334 156.773C151.88 155.889 151.25 155.372 150.435 155.203C149.621 155.034 148.563 155.244 147.236 155.825L147.032 155.428C148.066 154.749 148.712 154.068 148.967 153.384C149.223 152.701 149.128 151.949 148.712 151.137C148.202 150.144 147.421 149.568 146.378 149.428C145.335 149.287 144.106 149.587 142.671 150.338L133.528 155.126L134.501 157.021L136.471 155.989C136.605 155.919 136.69 155.943 136.755 156.069L140.999 164.335C141.064 164.461 141.034 164.545 140.9 164.615L138.93 165.647ZM144.917 155.894L141.072 157.907L139.321 154.497L143.166 152.484C143.874 152.113 144.483 151.977 145.014 152.065C145.545 152.154 145.949 152.469 146.218 152.992C146.505 153.551 146.517 154.095 146.273 154.612C146.029 155.129 145.596 155.562 144.965 155.892L144.917 155.894ZM147.795 161.028L143.798 163.121L141.954 159.53L145.951 157.436C146.774 157.006 147.469 156.848 148.048 156.934C148.626 157.02 149.068 157.361 149.384 157.929C149.671 158.488 149.683 159.032 149.4 159.569C149.118 160.106 148.57 160.599 147.748 161.03L147.795 161.028Z" fill="#0123FF"/>
<path d="M161.803 152.507L163.134 154.173L170.299 148.625L168.969 146.96L166.273 149.047C166.153 149.139 166.064 149.131 165.976 149.02L163.529 145.959L167.658 142.763L166.518 141.336L162.389 144.532L160.044 141.598L165.111 137.675C165.162 137.636 165.226 137.612 165.286 137.617C165.345 137.622 165.388 137.641 165.426 137.689L167.489 139.993L169.297 138.593L165.913 134.359L154.414 143.262L155.745 144.927L157.502 143.566C157.622 143.474 157.711 143.482 157.799 143.593L163.604 150.856C163.693 150.967 163.68 151.054 163.56 151.147L161.803 152.507Z" fill="#0123FF"/>
<path d="M174.005 142.402L175.606 143.824L180.256 138.932L178.656 137.51L177.056 139.193L175.968 136.819L180.722 131.818L183.261 132.665L181.662 134.348L183.263 135.769L188.238 130.534L186.638 129.113L185.616 130.188C185.512 130.297 185.393 130.334 185.257 130.3L172.538 126.705L170.301 129.057L175.083 141.003C175.13 141.131 175.101 141.249 174.998 141.359L174.005 142.402ZM178.727 131.195L175.113 134.997L172.641 129.583L172.937 129.272L178.727 131.195Z" fill="#0123FF"/>
<path d="M189.854 126.423C191.623 125.853 193.111 124.613 194.316 122.703C196.853 118.684 196.293 115.491 192.634 113.124L191.087 115.575C192.323 116.389 193.036 117.301 193.254 118.302C193.473 119.303 193.221 120.357 192.516 121.474C191.742 122.699 190.769 123.471 189.578 123.78C188.387 124.088 187.028 123.814 185.484 122.949C183.922 122.074 182.99 121.087 182.686 119.99C182.382 118.893 182.615 117.754 183.377 116.547C184.799 114.295 186.816 113.717 189.457 114.807L190.982 112.393L185.65 109.404L184.307 111.531L188.159 113.86L187.92 114.239C186.574 113.484 185.335 113.253 184.184 113.535C183.034 113.818 182.004 114.68 181.105 116.103C180.411 117.203 180.03 118.306 179.933 119.423C179.836 120.54 180.121 121.627 180.772 122.675C181.423 123.723 182.485 124.659 183.939 125.474C186.111 126.692 188.091 127.02 189.86 126.451L189.854 126.423Z" fill="#0123FF"/>
<path d="M199.172 109.918L201.317 110.4L205.358 96.5564L199.394 95.2151L198.765 97.3681L202.334 98.3421C202.476 98.3743 202.514 98.4685 202.473 98.6094L200.711 104.646C200.67 104.787 200.591 104.833 200.448 104.801L196.445 103.901L197.901 98.9107L196.063 98.4973L194.606 103.487L190.889 102.651L192.639 96.6552C192.68 96.5144 192.765 96.4477 192.908 96.4798L196.066 96.9969L196.694 94.8439L191.241 93.6175L187.264 107.24L189.409 107.722L190.014 105.65C190.055 105.509 190.134 105.462 190.277 105.494L199.632 107.598C199.775 107.63 199.818 107.704 199.777 107.845L199.172 109.918Z" fill="#0123FF"/>
</g>
<path fill-rule="evenodd" clip-rule="evenodd" d="M73.2698 154.124C69.8128 156.209 66.6261 156.714 63.9048 156.04C61.1835 155.366 58.6014 153.431 56.5172 149.974C58.6014 153.431 59.1069 156.618 58.4327 159.339C57.7585 162.06 55.8237 164.642 52.3667 166.726C55.8237 164.642 59.0104 164.137 61.7317 164.811C64.453 165.485 67.0351 167.42 69.1193 170.877C67.0351 167.42 66.5296 164.233 67.2038 161.512C67.878 158.791 69.8128 156.209 73.2698 154.124Z" fill="#25FD1E"/>
<path fill-rule="evenodd" clip-rule="evenodd" d="M205.967 74.1234C202.51 76.2076 199.323 76.7131 196.602 76.0389C193.881 75.3647 191.299 73.4299 189.214 69.9729C191.299 73.4299 191.804 76.6167 191.13 79.3379C190.456 82.0592 188.521 84.6414 185.064 86.7255C188.521 84.6414 191.708 84.1359 194.429 84.8101C197.15 85.4843 199.732 87.419 201.817 90.876C199.732 87.419 199.227 84.2323 199.901 81.511C200.575 78.7897 202.51 76.2076 205.967 74.1234Z" fill="#25FD1E"/>
<defs>
<clipPath id="clip0_12_419">
<rect width="160.124" height="98.9398" fill="white" transform="translate(34.6196 116.607) rotate(-31.085)"/>
</clipPath>
</defs>
</svg>
